<svg id="visual" viewBox="0 0 900 450" width="900" height="450" xmlns="http://www.w3.org/2000/svg" xmlns:xlink="http://www.w3.org/1999/xlink" version="1.1"><rect x="0" y="0" width="900" height="450" fill="#FFFBE6"></rect><path d="M0 230L129 230L129 223L257 223L257 233L386 233L386 259L514 259L514 224L643 224L643 254L771 254L771 287L900 287L900 270L900 451L900 451L771 451L771 451L643 451L643 451L514 451L514 451L386 451L386 451L257 451L257 451L129 451L129 451L0 451Z" fill="#fcde70"></path><path d="M0 289L129 289L129 333L257 333L257 291L386 291L386 268L514 268L514 293L643 293L643 285L771 285L771 291L900 291L900 331L900 451L900 451L771 451L771 451L643 451L643 451L514 451L514 451L386 451L386 451L257 451L257 451L129 451L129 451L0 451Z" fill="#91c06e"></path><path d="M0 358L129 358L129 369L257 369L257 404L386 404L386 377L514 377L514 358L643 358L643 364L771 364L771 400L900 400L900 355L900 451L900 451L771 451L771 451L643 451L643 451L514 451L514 451L386 451L386 451L257 451L257 451L129 451L129 451L0 451Z" fill="#379777"></path></svg>