<svg id="visual" viewBox="0 0 900 450" width="900" height="450" xmlns="http://www.w3.org/2000/svg" xmlns:xlink="http://www.w3.org/1999/xlink" version="1.1"><rect x="0" y="0" width="900" height="450" fill="#379777"></rect><path d="M0 196L75 196L75 228L150 228L150 287L225 287L225 205L300 205L300 236L375 236L375 238L450 238L450 192L525 192L525 216L600 216L600 194L675 194L675 252L750 252L750 192L825 192L825 235L900 235L900 240L900 451L900 451L825 451L825 451L750 451L750 451L675 451L675 451L600 451L600 451L525 451L525 451L450 451L450 451L375 451L375 451L300 451L300 451L225 451L225 451L150 451L150 451L75 451L75 451L0 451Z" fill="#f5f7f8"></path><path d="M0 315L75 315L75 335L150 335L150 305L225 305L225 279L300 279L300 271L375 271L375 275L450 275L450 267L525 267L525 288L600 288L600 326L675 326L675 270L750 270L750 309L825 309L825 335L900 335L900 316L900 451L900 451L825 451L825 451L750 451L750 451L675 451L675 451L600 451L600 451L525 451L525 451L450 451L450 451L375 451L375 451L300 451L300 451L225 451L225 451L150 451L150 451L75 451L75 451L0 451Z" fill="#8fc7c9"></path><path d="M0 367L75 367L75 397L150 397L150 331L225 331L225 340L300 340L300 392L375 392L375 368L450 368L450 374L525 374L525 404L600 404L600 344L675 344L675 356L750 356L750 331L825 331L825 331L900 331L900 369L900 451L900 451L825 451L825 451L750 451L750 451L675 451L675 451L600 451L600 451L525 451L525 451L450 451L450 451L375 451L375 451L300 451L300 451L225 451L225 451L150 451L150 451L75 451L75 451L0 451Z" fill="#379777"></path></svg>